<svg width="69" height="66" viewBox="0 0 69 66" fill="none" xmlns="http://www.w3.org/2000/svg">
<path d="M32.6994 1.72447C33.4275 0.218489 35.5725 0.218488 36.3006 1.72447L45.118 19.9628C45.4116 20.5702 45.9916 20.9885 46.6606 21.0756L66.9151 23.7108C68.5909 23.9289 69.2577 25.9982 68.0245 27.1536L53.2422 41.0038C52.7436 41.471 52.518 42.1605 52.644 42.8321L56.36 62.6396C56.6696 64.2901 54.9302 65.5643 53.4498 64.7713L35.4444 55.1259C34.8545 54.8099 34.1455 54.8099 33.5556 55.1259L15.5501 64.7713C14.0698 65.5643 12.3304 64.2901 12.64 62.6396L16.356 42.8321C16.482 42.1605 16.2564 41.471 15.7578 41.0038L0.975471 27.1536C-0.257711 25.9982 0.409111 23.9289 2.08488 23.7108L22.3394 21.0756C23.0084 20.9885 23.5884 20.5701 23.882 19.9628L32.6994 1.72447Z" fill="#C4C4C4"/>
</svg>
