<svg width="50" height="50" viewBox="0 0 50 50" fill="none" xmlns="http://www.w3.org/2000/svg">
<path d="M3.02419 41.5612L0.604839 46.4135L0.525099 46.5804C0.310334 47.0299 0.154272 47.5051 0.0607556 47.9944C0.0203423 48.2058 0 48.4206 0 48.6359V48.684C0 48.987 0.11684 49.2784 0.326212 49.4975L0.441753 49.6184C0.548378 49.73 0.683899 49.8097 0.833204 49.8488C1.21463 49.9486 1.61233 49.97 2.00226 49.9117L2.82258 49.789L3.83064 49.5781L42.1017 40.6335C42.4204 40.559 42.4065 40.1007 42.0838 40.0456L16.3306 35.654L13.3065 35.4431H10.4839L9.48421 35.5477C8.80803 35.6184 8.13993 35.752 7.48855 35.9468C7.20348 36.032 6.93878 36.1745 6.71063 36.3655L6.60738 36.4519C6.23554 36.7632 5.89373 37.1087 5.58644 37.4838C5.08881 38.0913 4.64239 38.739 4.25176 39.4203L3.02419 41.5612Z" fill="#53B04B"/>
<path d="M23.6062 0.76516L8.46765 30.8017L12.2983 28.0591L17.9435 23.2068L23.9918 18.3544L28.4273 14.557L29.3065 13.8414C29.9238 13.339 30.4341 12.718 30.8074 12.015C31.098 11.4676 31.2499 10.8574 31.2499 10.2377V10.1148C31.2499 9.56703 31.1273 9.02616 30.8911 8.53188L30.6451 8.01688L29.4354 5.90717L26.0161 0.63435C25.7596 0.238764 25.3202 0 24.8487 0C24.3233 0 23.8427 0.295968 23.6062 0.76516Z" fill="#53B04B"/>
<path d="M41.3306 23.4177L35.6272 15.025C35.2529 14.4742 34.4548 14.4363 34.03 14.9492L32.2581 17.0886L30.4435 19.4093L28.0242 22.3629L25.8442 24.9699C25.4253 25.4709 25.1648 26.0851 25.0958 26.7345C25.0334 27.3222 25.1518 27.915 25.435 28.4338L25.6507 28.8286C25.7543 29.0184 25.8754 29.1981 26.0124 29.3654L26.2526 29.6586C26.7578 30.2754 27.366 30.7999 28.0502 31.209L28.0786 31.226C28.3107 31.3648 28.5547 31.4824 28.8078 31.5775L36.2903 34.3882L44.5565 37.9747L46.7742 38.8186L47.8683 39.2002C48.3397 39.3646 48.8469 39.3974 49.3355 39.2952C49.5026 39.2602 49.6485 39.1593 49.7402 39.0154L49.784 38.9466C49.9251 38.7252 50 38.4681 50 38.2056V38.0276C50 37.852 49.9834 37.6769 49.9505 37.5045L49.944 37.4707C49.8478 36.9674 49.657 36.4869 49.3816 36.0547L41.3306 23.4177Z" fill="#53B04B"/>
</svg>
